<svg fill="currentColor" xmlns="http://www.w3.org/2000/svg" viewBox="0 0 65 64" width="400" height="400">
    <path d="M14.92 11.822c2.038 0 3.75-1.712 3.75-3.75 0-2.039-1.712-3.75-3.75-3.75-2.038 0-3.75 1.711-3.75 3.75 0 2.038 1.712 3.75 3.75 3.75zm-2.038 26.497c0 .571.49 1.06 1.06 1.06.57 0 1.06-.489 1.06-1.06 0-.57-.49-1.06-1.06-1.06-.57 0-1.06.49-1.06 1.06zm7.5-21.768c.897 0 1.55-.734 1.55-1.55 0-.896-.734-1.548-1.55-1.548-.896 0-1.548.733-1.548 1.549 0 .815.652 1.549 1.549 1.549zM8.073 30.656c2.038 0 3.75-1.713 3.75-3.75 0-2.04-1.712-3.751-3.75-3.751-2.039 0-3.75 1.712-3.75 3.75.08 2.038 1.711 3.75 3.75 3.75zM2.69 21.85c.896 0 1.549-.734 1.549-1.549 0-.897-.734-1.549-1.55-1.549-.896 0-1.549.734-1.549 1.55 0 .896.653 1.548 1.55 1.548zm-.571 3.425c0-.571-.49-1.06-1.06-1.06-.57 0-1.06.489-1.06 1.06 0 .57.49 1.06 1.06 1.06.57 0 1.06-.49 1.06-1.06zm4.973-8.806a2.576 2.576 0 002.61-2.609 2.576 2.576 0 00-2.61-2.609 2.576 2.576 0 00-2.609 2.61 2.576 2.576 0 002.61 2.608zM38.81 2.12c.57 0 1.06-.488 1.06-1.06 0-.57-.49-1.059-1.06-1.059-.571 0-1.06.49-1.06 1.06 0 .57.489 1.06 1.06 1.06zM10.273 37.913a4.558 4.558 0 00-4.566-4.566 4.558 4.558 0 00-4.566 4.566 4.558 4.558 0 004.566 4.566 4.558 4.558 0 004.566-4.566zM56.012 18.67c2.038 0 3.75-1.713 3.75-3.75 0-2.04-1.712-3.751-3.75-3.751-2.039 0-3.75 1.712-3.75 3.75a3.74 3.74 0 003.75 3.75zm-8.398 25.763a2.576 2.576 0 002.609 2.61 2.576 2.576 0 002.609-2.61 2.576 2.576 0 00-2.609-2.609 2.576 2.576 0 00-2.609 2.61zm2.609-34.732a2.576 2.576 0 002.609-2.609 2.576 2.576 0 00-2.609-2.609 2.576 2.576 0 00-2.609 2.61 2.576 2.576 0 002.609 2.608zm-5.789 6.767a2.576 2.576 0 002.61-2.609 2.576 2.576 0 00-2.61-2.609 2.576 2.576 0 00-2.609 2.61 2.576 2.576 0 002.61 2.608zm9.376 9.213a4.558 4.558 0 004.566 4.566 4.558 4.558 0 004.566-4.566 4.558 4.558 0 00-4.566-4.566 4.558 4.558 0 00-4.566 4.566zm-2.609-.407c0-.571-.489-1.06-1.06-1.06-.57 0-1.06.489-1.06 1.06 0 .57.49 1.06 1.06 1.06.571 0 1.06-.49 1.06-1.06zm-7.5-21.117c.896 0 1.549-.734 1.549-1.549s-.734-1.55-1.55-1.55c-.896 0-1.549.735-1.549 1.55 0 .815.734 1.55 1.55 1.55zm4.891 17.692c.897 0 1.55-.734 1.55-1.549 0-.897-.734-1.549-1.55-1.549-.815 0-1.549.734-1.549 1.55 0 .896.734 1.548 1.55 1.548zM16.47 19.16a2.576 2.576 0 00-2.609-2.61 2.576 2.576 0 00-2.609 2.61 2.576 2.576 0 002.61 2.609 2.576 2.576 0 002.608-2.61zM43.7 47.043c-.896 0-1.549.734-1.549 1.55 0 .896.734 1.548 1.55 1.548.896 0 1.549-.733 1.549-1.549 0-.815-.653-1.549-1.55-1.549zm-5.299 6.278a4.558 4.558 0 00-4.566 4.566 4.558 4.558 0 004.566 4.566 4.558 4.558 0 004.566-4.566A4.558 4.558 0 0038.4 53.32zm10.762-1.549c-2.038 0-3.75 1.712-3.75 3.75 0 2.039 1.712 3.75 3.75 3.75 2.038 0 3.75-1.711 3.75-3.75 0-2.038-1.712-3.75-3.75-3.75zm-11.414-1.63c0 .57.489 1.06 1.06 1.06.57 0 1.06-.49 1.06-1.06 0-.571-.49-1.06-1.06-1.06-.571.081-1.06.489-1.06 1.06zM63.023 37.26c-.57 0-1.06.489-1.06 1.06 0 .57.49 1.06 1.06 1.06.571 0 1.06-.49 1.06-1.06 0-.571-.57-1.06-1.06-1.06zm-1.63 4.484c-.897 0-1.55.734-1.55 1.549 0 .897.734 1.549 1.55 1.549.897 0 1.549-.734 1.549-1.55 0-.896-.652-1.548-1.55-1.548zM36.689 11.822c2.038 0 3.75-1.712 3.75-3.75 0-2.039-1.712-3.75-3.75-3.75-2.038 0-3.75 1.711-3.75 3.75 0 2.038 1.712 3.75 3.75 3.75zm19.323 21.116c-2.039 0-3.75 1.713-3.75 3.75 0 2.04 1.711 3.751 3.75 3.751 2.038 0 3.75-1.712 3.75-3.75-.081-2.038-1.712-3.75-3.75-3.75zM8.072 44.923c-2.039 0-3.75 1.713-3.75 3.75 0 2.04 1.711 3.751 3.75 3.751 2.038 0 3.75-1.712 3.75-3.75a3.74 3.74 0 00-3.75-3.75zm48.918 2.202a2.576 2.576 0 00-2.609 2.609 2.576 2.576 0 002.609 2.609 2.576 2.576 0 002.609-2.61 2.576 2.576 0 00-2.609-2.608zm-41.5-5.381c-.896 0-1.548.734-1.548 1.549 0 .897.733 1.549 1.549 1.549.815 0 1.549-.734 1.549-1.55 0-.896-.734-1.548-1.55-1.548zm4.159 5.38a2.576 2.576 0 00-2.61 2.61 2.576 2.576 0 002.61 2.609 2.576 2.576 0 002.609-2.61 2.576 2.576 0 00-2.61-2.608zm.734 12.312c-.897 0-1.55.734-1.55 1.55 0 .814.734 1.548 1.55 1.548.896 0 1.549-.734 1.549-1.549s-.734-1.549-1.55-1.549zm-6.523-5.544a2.576 2.576 0 00-2.609 2.609 2.576 2.576 0 002.61 2.609 2.576 2.576 0 002.608-2.61 2.576 2.576 0 00-2.609-2.608zm10.436-40.44c0 .571.49 1.06 1.06 1.06.57 0 1.06-.489 1.06-1.06 0-.57-.49-1.06-1.06-1.06-.652 0-1.06.49-1.06 1.06zm5.952-7.826a4.558 4.558 0 00-4.566-4.566 4.558 4.558 0 00-4.566 4.566 4.558 4.558 0 004.566 4.565c2.528.082 4.566-1.956 4.566-4.565zm-4.973 55.848c-.571 0-1.06.49-1.06 1.06 0 .57.489 1.06 1.06 1.06.57 0 1.06-.49 1.06-1.06 0-.57-.49-1.06-1.06-1.06zm2.12-9.702c-2.039 0-3.751 1.712-3.751 3.75 0 2.039 1.712 3.75 3.75 3.75 2.039 0 3.75-1.711 3.75-3.75 0-2.038-1.711-3.75-3.75-3.75z" />
</svg>
